<mxfile host="Electron" agent="Mozilla/5.0 (Windows NT 10.0; Win64; x64) AppleWebKit/537.36 (KHTML, like Gecko) draw.io/25.0.1 Chrome/128.0.6613.186 Electron/32.2.6 Safari/537.36" version="25.0.1">
  <diagram name="PÃ¡gina-1" id="s3OMrO0p6jmiYu_DmSFK">
    <mxGraphModel dx="2442" dy="2124" grid="1" gridSize="10" guides="1" tooltips="1" connect="1" arrows="1" fold="1" page="1" pageScale="1" pageWidth="827" pageHeight="1169" math="0" shadow="0">
      <root>
        <mxCell id="0" />
        <mxCell id="1" parent="0" />
        <mxCell id="3uJrxtnBRZQrfx2Aj6_I-8" value="" style="verticalLabelPosition=bottom;aspect=fixed;html=1;verticalAlign=top;strokeColor=none;align=center;outlineConnect=0;shape=mxgraph.citrix.tower_server;rounded=1;" parent="1" vertex="1">
          <mxGeometry x="427.5" y="-905" width="65" height="85" as="geometry" />
        </mxCell>
        <mxCell id="3uJrxtnBRZQrfx2Aj6_I-30" style="edgeStyle=none;rounded=1;orthogonalLoop=1;jettySize=auto;html=1;exitX=0.85;exitY=0.73;exitDx=0;exitDy=0;exitPerimeter=0;fontFamily=Helvetica;fontSize=12;fontColor=default;entryX=0;entryY=0.73;entryDx=0;entryDy=0;entryPerimeter=0;endArrow=baseDash;endFill=0;" parent="1" source="3uJrxtnBRZQrfx2Aj6_I-17" target="3uJrxtnBRZQrfx2Aj6_I-19" edge="1">
          <mxGeometry relative="1" as="geometry">
            <mxPoint x="410" y="-567" as="targetPoint" />
          </mxGeometry>
        </mxCell>
        <mxCell id="aQdcpVnJObZtxGF_5yML-67" style="edgeStyle=orthogonalEdgeStyle;rounded=0;orthogonalLoop=1;jettySize=auto;html=1;entryX=0;entryY=0.5;entryDx=0;entryDy=0;" edge="1" parent="1" source="3uJrxtnBRZQrfx2Aj6_I-17" target="aQdcpVnJObZtxGF_5yML-8">
          <mxGeometry relative="1" as="geometry">
            <Array as="points">
              <mxPoint x="190" y="-425" />
            </Array>
          </mxGeometry>
        </mxCell>
        <mxCell id="3uJrxtnBRZQrfx2Aj6_I-17" value="" style="shape=mxgraph.cisco.routers.isci_router;sketch=0;html=1;pointerEvents=1;dashed=0;strokeWidth=2;verticalLabelPosition=bottom;verticalAlign=top;align=center;outlineConnect=0;rounded=1;fontFamily=Helvetica;fontSize=12;fillColor=#bac8d3;strokeColor=#23445d;points=[[0,0.5,0,0,0],[0,0.76,0,0,0],[0.16,0.15,0,0,0],[0.5,0.15,0,0,0],[0.5,1,0,0,0],[0.85,0.73,0,0,0],[1,0,0,0,0],[1,0.5,0,0,0]];" parent="1" vertex="1">
          <mxGeometry x="153" y="-622" width="101" height="75" as="geometry" />
        </mxCell>
        <mxCell id="aQdcpVnJObZtxGF_5yML-13" style="edgeStyle=orthogonalEdgeStyle;rounded=0;orthogonalLoop=1;jettySize=auto;html=1;" edge="1" parent="1" source="3uJrxtnBRZQrfx2Aj6_I-19" target="aQdcpVnJObZtxGF_5yML-8">
          <mxGeometry relative="1" as="geometry" />
        </mxCell>
        <mxCell id="3uJrxtnBRZQrfx2Aj6_I-19" value="" style="shape=mxgraph.cisco.routers.isci_router;sketch=0;html=1;pointerEvents=1;dashed=0;strokeWidth=2;verticalLabelPosition=bottom;verticalAlign=top;align=center;outlineConnect=0;rounded=1;fontFamily=Helvetica;fontSize=12;fillColor=#bac8d3;strokeColor=#23445d;points=[[0,0.5,0,0,0],[0,0.73,0,0,0],[0.16,0.15,0,0,0],[0.5,0.15,0,0,0],[0.5,1,0,0,0],[0.94,0.73,0,0,0],[1,0,0,0,0],[1,0.5,0,0,0]];" parent="1" vertex="1">
          <mxGeometry x="416" y="-622" width="101" height="75" as="geometry" />
        </mxCell>
        <mxCell id="aQdcpVnJObZtxGF_5yML-68" style="edgeStyle=orthogonalEdgeStyle;rounded=0;orthogonalLoop=1;jettySize=auto;html=1;entryX=1;entryY=0.5;entryDx=0;entryDy=0;" edge="1" parent="1" source="3uJrxtnBRZQrfx2Aj6_I-20" target="aQdcpVnJObZtxGF_5yML-8">
          <mxGeometry relative="1" as="geometry">
            <Array as="points">
              <mxPoint x="720" y="-425" />
            </Array>
          </mxGeometry>
        </mxCell>
        <mxCell id="3uJrxtnBRZQrfx2Aj6_I-20" value="" style="shape=mxgraph.cisco.routers.isci_router;sketch=0;html=1;pointerEvents=1;dashed=0;strokeWidth=2;verticalLabelPosition=bottom;verticalAlign=top;align=center;outlineConnect=0;rounded=1;fontFamily=Helvetica;fontSize=12;fillColor=#bac8d3;strokeColor=#23445d;points=[[0,0.5,0,0,0],[0,0.73,0,0,0],[0.16,0.15,0,0,0],[0.5,0.15,0,0,0],[0.5,1,0,0,0],[0.94,0.73,0,0,0],[1,0,0,0,0],[1,0.5,0,0,0]];" parent="1" vertex="1">
          <mxGeometry x="673" y="-622" width="101" height="75" as="geometry" />
        </mxCell>
        <mxCell id="3uJrxtnBRZQrfx2Aj6_I-21" value="" style="shape=mxgraph.cisco.misc.bbsm;sketch=0;html=1;pointerEvents=1;dashed=0;fillColor=#55b5d8;strokeColor=#10739e;strokeWidth=2;verticalLabelPosition=bottom;verticalAlign=top;align=center;outlineConnect=0;rounded=1;fontFamily=Helvetica;fontSize=12;" parent="1" vertex="1">
          <mxGeometry x="411.5" y="-750" width="101" height="42" as="geometry" />
        </mxCell>
        <mxCell id="3uJrxtnBRZQrfx2Aj6_I-22" style="edgeStyle=none;rounded=1;orthogonalLoop=1;jettySize=auto;html=1;entryX=0.5;entryY=0.15;entryDx=0;entryDy=0;entryPerimeter=0;fontFamily=Helvetica;fontSize=12;fontColor=default;endArrow=baseDash;endFill=0;" parent="1" source="3uJrxtnBRZQrfx2Aj6_I-21" target="3uJrxtnBRZQrfx2Aj6_I-17" edge="1">
          <mxGeometry relative="1" as="geometry" />
        </mxCell>
        <mxCell id="3uJrxtnBRZQrfx2Aj6_I-23" style="edgeStyle=none;rounded=1;orthogonalLoop=1;jettySize=auto;html=1;entryX=0.5;entryY=0.15;entryDx=0;entryDy=0;entryPerimeter=0;fontFamily=Helvetica;fontSize=12;fontColor=default;endArrow=baseDash;endFill=0;" parent="1" source="3uJrxtnBRZQrfx2Aj6_I-21" target="3uJrxtnBRZQrfx2Aj6_I-19" edge="1">
          <mxGeometry relative="1" as="geometry" />
        </mxCell>
        <mxCell id="3uJrxtnBRZQrfx2Aj6_I-24" style="edgeStyle=none;rounded=1;orthogonalLoop=1;jettySize=auto;html=1;entryX=0.5;entryY=0.15;entryDx=0;entryDy=0;entryPerimeter=0;fontFamily=Helvetica;fontSize=12;fontColor=default;endArrow=baseDash;endFill=0;" parent="1" source="3uJrxtnBRZQrfx2Aj6_I-21" target="3uJrxtnBRZQrfx2Aj6_I-20" edge="1">
          <mxGeometry relative="1" as="geometry" />
        </mxCell>
        <mxCell id="3uJrxtnBRZQrfx2Aj6_I-27" style="edgeStyle=none;rounded=1;orthogonalLoop=1;jettySize=auto;html=1;entryX=0.5;entryY=0;entryDx=0;entryDy=0;entryPerimeter=0;fontFamily=Helvetica;fontSize=12;fontColor=default;endArrow=baseDash;endFill=0;" parent="1" source="3uJrxtnBRZQrfx2Aj6_I-8" target="3uJrxtnBRZQrfx2Aj6_I-21" edge="1">
          <mxGeometry relative="1" as="geometry" />
        </mxCell>
        <mxCell id="3uJrxtnBRZQrfx2Aj6_I-32" style="edgeStyle=none;rounded=1;orthogonalLoop=1;jettySize=auto;html=1;exitX=0.94;exitY=0.73;exitDx=0;exitDy=0;exitPerimeter=0;entryX=0;entryY=0.73;entryDx=0;entryDy=0;entryPerimeter=0;fontFamily=Helvetica;fontSize=12;fontColor=default;endArrow=baseDash;endFill=0;" parent="1" source="3uJrxtnBRZQrfx2Aj6_I-19" target="3uJrxtnBRZQrfx2Aj6_I-20" edge="1">
          <mxGeometry relative="1" as="geometry" />
        </mxCell>
        <mxCell id="3uJrxtnBRZQrfx2Aj6_I-45" value="" style="edgeStyle=none;rounded=1;orthogonalLoop=1;jettySize=auto;html=1;fontFamily=Helvetica;fontSize=12;fontColor=default;endArrow=baseDash;endFill=0;" parent="1" source="3uJrxtnBRZQrfx2Aj6_I-33" target="3uJrxtnBRZQrfx2Aj6_I-42" edge="1">
          <mxGeometry relative="1" as="geometry" />
        </mxCell>
        <mxCell id="3uJrxtnBRZQrfx2Aj6_I-33" value="" style="shape=mxgraph.cisco.routers.router;sketch=0;html=1;pointerEvents=1;dashed=0;fillColor=#bac8d3;strokeColor=#23445d;strokeWidth=2;verticalLabelPosition=bottom;verticalAlign=top;align=center;outlineConnect=0;rounded=1;fontFamily=Helvetica;fontSize=12;" parent="1" vertex="1">
          <mxGeometry x="-117" y="-589" width="78" height="53" as="geometry" />
        </mxCell>
        <mxCell id="3uJrxtnBRZQrfx2Aj6_I-48" value="" style="edgeStyle=none;rounded=1;orthogonalLoop=1;jettySize=auto;html=1;fontFamily=Helvetica;fontSize=12;fontColor=default;endArrow=baseDash;endFill=0;" parent="1" source="3uJrxtnBRZQrfx2Aj6_I-34" target="3uJrxtnBRZQrfx2Aj6_I-41" edge="1">
          <mxGeometry relative="1" as="geometry" />
        </mxCell>
        <mxCell id="3uJrxtnBRZQrfx2Aj6_I-34" value="" style="shape=mxgraph.cisco.routers.router;sketch=0;html=1;pointerEvents=1;dashed=0;fillColor=#bac8d3;strokeColor=#23445d;strokeWidth=2;verticalLabelPosition=bottom;verticalAlign=top;align=center;outlineConnect=0;rounded=1;fontFamily=Helvetica;fontSize=12;" parent="1" vertex="1">
          <mxGeometry x="970" y="-597.25" width="78" height="53" as="geometry" />
        </mxCell>
        <mxCell id="3uJrxtnBRZQrfx2Aj6_I-35" style="edgeStyle=none;rounded=1;orthogonalLoop=1;jettySize=auto;html=1;exitX=0.94;exitY=0.73;exitDx=0;exitDy=0;exitPerimeter=0;entryX=0;entryY=0.5;entryDx=0;entryDy=0;entryPerimeter=0;fontFamily=Helvetica;fontSize=12;fontColor=default;endArrow=baseDash;endFill=0;" parent="1" source="3uJrxtnBRZQrfx2Aj6_I-20" target="3uJrxtnBRZQrfx2Aj6_I-34" edge="1">
          <mxGeometry relative="1" as="geometry" />
        </mxCell>
        <mxCell id="3uJrxtnBRZQrfx2Aj6_I-36" style="edgeStyle=none;rounded=1;orthogonalLoop=1;jettySize=auto;html=1;exitX=0;exitY=0.76;exitDx=0;exitDy=0;exitPerimeter=0;entryX=1;entryY=0.5;entryDx=0;entryDy=0;entryPerimeter=0;fontFamily=Helvetica;fontSize=12;fontColor=default;endArrow=baseDash;endFill=0;fillColor=#d5e8d4;gradientColor=#97d077;strokeColor=#000000;" parent="1" source="3uJrxtnBRZQrfx2Aj6_I-17" target="3uJrxtnBRZQrfx2Aj6_I-33" edge="1">
          <mxGeometry relative="1" as="geometry" />
        </mxCell>
        <mxCell id="3uJrxtnBRZQrfx2Aj6_I-46" value="" style="edgeStyle=none;rounded=1;orthogonalLoop=1;jettySize=auto;html=1;fontFamily=Helvetica;fontSize=12;fontColor=default;endArrow=baseDash;endFill=0;" parent="1" source="3uJrxtnBRZQrfx2Aj6_I-37" target="3uJrxtnBRZQrfx2Aj6_I-43" edge="1">
          <mxGeometry relative="1" as="geometry" />
        </mxCell>
        <mxCell id="3uJrxtnBRZQrfx2Aj6_I-37" value="" style="shape=mxgraph.cisco.routers.router;sketch=0;html=1;pointerEvents=1;dashed=0;fillColor=#bac8d3;strokeColor=#23445d;strokeWidth=2;verticalLabelPosition=bottom;verticalAlign=top;align=center;outlineConnect=0;rounded=1;fontFamily=Helvetica;fontSize=12;" parent="1" vertex="1">
          <mxGeometry x="-117" y="-408" width="78" height="53" as="geometry" />
        </mxCell>
        <mxCell id="3uJrxtnBRZQrfx2Aj6_I-47" value="" style="edgeStyle=none;rounded=1;orthogonalLoop=1;jettySize=auto;html=1;fontFamily=Helvetica;fontSize=12;fontColor=default;endArrow=baseDash;endFill=0;" parent="1" source="3uJrxtnBRZQrfx2Aj6_I-38" target="3uJrxtnBRZQrfx2Aj6_I-44" edge="1">
          <mxGeometry relative="1" as="geometry" />
        </mxCell>
        <mxCell id="3uJrxtnBRZQrfx2Aj6_I-38" value="" style="shape=mxgraph.cisco.routers.router;sketch=0;html=1;pointerEvents=1;dashed=0;fillColor=#bac8d3;strokeColor=#23445d;strokeWidth=2;verticalLabelPosition=bottom;verticalAlign=top;align=center;outlineConnect=0;rounded=1;fontFamily=Helvetica;fontSize=12;" parent="1" vertex="1">
          <mxGeometry x="-117" y="-228" width="78" height="53" as="geometry" />
        </mxCell>
        <mxCell id="3uJrxtnBRZQrfx2Aj6_I-39" style="edgeStyle=none;rounded=1;orthogonalLoop=1;jettySize=auto;html=1;entryX=0.5;entryY=0;entryDx=0;entryDy=0;entryPerimeter=0;fontFamily=Helvetica;fontSize=12;fontColor=default;endArrow=baseDash;endFill=0;" parent="1" source="3uJrxtnBRZQrfx2Aj6_I-33" target="3uJrxtnBRZQrfx2Aj6_I-37" edge="1">
          <mxGeometry relative="1" as="geometry" />
        </mxCell>
        <mxCell id="3uJrxtnBRZQrfx2Aj6_I-40" style="edgeStyle=none;rounded=1;orthogonalLoop=1;jettySize=auto;html=1;entryX=0.5;entryY=0;entryDx=0;entryDy=0;entryPerimeter=0;fontFamily=Helvetica;fontSize=12;fontColor=default;endArrow=baseDash;endFill=0;" parent="1" source="3uJrxtnBRZQrfx2Aj6_I-37" target="3uJrxtnBRZQrfx2Aj6_I-38" edge="1">
          <mxGeometry relative="1" as="geometry" />
        </mxCell>
        <mxCell id="3uJrxtnBRZQrfx2Aj6_I-41" value="" style="shape=mxgraph.cisco.misc.bbsm;sketch=0;html=1;pointerEvents=1;dashed=0;fillColor=#55b5d8;strokeColor=#10739e;strokeWidth=2;verticalLabelPosition=bottom;verticalAlign=top;align=center;outlineConnect=0;rounded=1;fontFamily=Helvetica;fontSize=12;" parent="1" vertex="1">
          <mxGeometry x="958.5" y="-703.25" width="101" height="42" as="geometry" />
        </mxCell>
        <mxCell id="3uJrxtnBRZQrfx2Aj6_I-54" value="" style="edgeStyle=none;rounded=1;orthogonalLoop=1;jettySize=auto;html=1;fontFamily=Helvetica;fontSize=12;fontColor=default;endArrow=baseDash;endFill=0;" parent="1" source="3uJrxtnBRZQrfx2Aj6_I-42" edge="1">
          <mxGeometry relative="1" as="geometry">
            <mxPoint x="-318" y="-562.5" as="targetPoint" />
          </mxGeometry>
        </mxCell>
        <mxCell id="3uJrxtnBRZQrfx2Aj6_I-42" value="" style="shape=mxgraph.cisco.misc.bbsm;sketch=0;html=1;pointerEvents=1;dashed=0;fillColor=#55b5d8;strokeColor=#10739e;strokeWidth=2;verticalLabelPosition=bottom;verticalAlign=top;align=center;outlineConnect=0;rounded=1;fontFamily=Helvetica;fontSize=12;" parent="1" vertex="1">
          <mxGeometry x="-237" y="-583.5" width="101" height="42" as="geometry" />
        </mxCell>
        <mxCell id="3uJrxtnBRZQrfx2Aj6_I-53" value="" style="edgeStyle=none;rounded=1;orthogonalLoop=1;jettySize=auto;html=1;fontFamily=Helvetica;fontSize=12;fontColor=default;endArrow=baseDash;endFill=0;" parent="1" source="3uJrxtnBRZQrfx2Aj6_I-43" edge="1">
          <mxGeometry relative="1" as="geometry">
            <mxPoint x="-318" y="-381.5000000000002" as="targetPoint" />
          </mxGeometry>
        </mxCell>
        <mxCell id="3uJrxtnBRZQrfx2Aj6_I-43" value="" style="shape=mxgraph.cisco.misc.bbsm;sketch=0;html=1;pointerEvents=1;dashed=0;fillColor=#55b5d8;strokeColor=#10739e;strokeWidth=2;verticalLabelPosition=bottom;verticalAlign=top;align=center;outlineConnect=0;rounded=1;fontFamily=Helvetica;fontSize=12;" parent="1" vertex="1">
          <mxGeometry x="-237" y="-402.5" width="101" height="42" as="geometry" />
        </mxCell>
        <mxCell id="3uJrxtnBRZQrfx2Aj6_I-52" value="" style="edgeStyle=none;rounded=1;orthogonalLoop=1;jettySize=auto;html=1;fontFamily=Helvetica;fontSize=12;fontColor=default;endArrow=baseDash;endFill=0;" parent="1" source="3uJrxtnBRZQrfx2Aj6_I-44" edge="1">
          <mxGeometry relative="1" as="geometry">
            <mxPoint x="-318" y="-201.50000000000045" as="targetPoint" />
          </mxGeometry>
        </mxCell>
        <mxCell id="3uJrxtnBRZQrfx2Aj6_I-44" value="" style="shape=mxgraph.cisco.misc.bbsm;sketch=0;html=1;pointerEvents=1;dashed=0;fillColor=#55b5d8;strokeColor=#10739e;strokeWidth=2;verticalLabelPosition=bottom;verticalAlign=top;align=center;outlineConnect=0;rounded=1;fontFamily=Helvetica;fontSize=12;" parent="1" vertex="1">
          <mxGeometry x="-247" y="-222.5" width="101" height="42" as="geometry" />
        </mxCell>
        <mxCell id="3uJrxtnBRZQrfx2Aj6_I-57" value="" style="verticalLabelPosition=bottom;sketch=0;aspect=fixed;html=1;verticalAlign=top;strokeColor=none;align=center;outlineConnect=0;shape=mxgraph.citrix.provisioning_server;rounded=1;fontFamily=Helvetica;fontSize=12;fontColor=default;fillColor=default;" parent="1" vertex="1">
          <mxGeometry x="870" y="-826.75" width="76" height="87" as="geometry" />
        </mxCell>
        <mxCell id="3uJrxtnBRZQrfx2Aj6_I-58" value="" style="verticalLabelPosition=bottom;sketch=0;aspect=fixed;html=1;verticalAlign=top;strokeColor=none;align=center;outlineConnect=0;shape=mxgraph.citrix.xenapp_web;rounded=1;fontFamily=Helvetica;fontSize=12;fontColor=default;fillColor=default;" parent="1" vertex="1">
          <mxGeometry x="1097" y="-829.75" width="76" height="90" as="geometry" />
        </mxCell>
        <mxCell id="3uJrxtnBRZQrfx2Aj6_I-59" style="edgeStyle=none;rounded=1;orthogonalLoop=1;jettySize=auto;html=1;entryX=0.5;entryY=0;entryDx=0;entryDy=0;entryPerimeter=0;fontFamily=Helvetica;fontSize=12;fontColor=default;endArrow=baseDash;endFill=0;" parent="1" source="3uJrxtnBRZQrfx2Aj6_I-57" target="3uJrxtnBRZQrfx2Aj6_I-41" edge="1">
          <mxGeometry relative="1" as="geometry">
            <mxPoint x="1009" y="-739.75" as="targetPoint" />
          </mxGeometry>
        </mxCell>
        <mxCell id="3uJrxtnBRZQrfx2Aj6_I-60" style="edgeStyle=none;rounded=1;orthogonalLoop=1;jettySize=auto;html=1;entryX=0.5;entryY=0;entryDx=0;entryDy=0;entryPerimeter=0;fontFamily=Helvetica;fontSize=12;fontColor=default;endArrow=baseDash;endFill=0;" parent="1" source="3uJrxtnBRZQrfx2Aj6_I-58" target="3uJrxtnBRZQrfx2Aj6_I-41" edge="1">
          <mxGeometry relative="1" as="geometry">
            <mxPoint x="1009" y="-739.75" as="targetPoint" />
          </mxGeometry>
        </mxCell>
        <mxCell id="3uJrxtnBRZQrfx2Aj6_I-61" value="" style="outlineConnect=0;dashed=0;verticalLabelPosition=bottom;verticalAlign=top;align=center;html=1;shape=mxgraph.aws3.internet_2;fillColor=#bac8d3;rounded=1;fontFamily=Helvetica;fontSize=12;strokeColor=#23445d;" parent="1" vertex="1">
          <mxGeometry x="1136.5" y="-620" width="129.5" height="73" as="geometry" />
        </mxCell>
        <mxCell id="3uJrxtnBRZQrfx2Aj6_I-62" style="edgeStyle=none;rounded=1;orthogonalLoop=1;jettySize=auto;html=1;entryX=0;entryY=0.7;entryDx=0;entryDy=0;entryPerimeter=0;fontFamily=Helvetica;fontSize=12;fontColor=default;endArrow=baseDash;endFill=0;" parent="1" source="3uJrxtnBRZQrfx2Aj6_I-34" target="3uJrxtnBRZQrfx2Aj6_I-61" edge="1">
          <mxGeometry relative="1" as="geometry" />
        </mxCell>
        <mxCell id="3uJrxtnBRZQrfx2Aj6_I-64" value="" style="image;points=[];aspect=fixed;html=1;align=center;shadow=0;dashed=0;image=img/lib/allied_telesis/computer_and_terminals/Personal_Computer_with_Server.svg;rounded=1;verticalAlign=top;fontFamily=Helvetica;fontSize=12;fontColor=default;fillColor=default;flipH=1;" parent="1" vertex="1">
          <mxGeometry x="-420" y="-613.5" width="102" height="102" as="geometry" />
        </mxCell>
        <mxCell id="3uJrxtnBRZQrfx2Aj6_I-65" value="" style="image;points=[];aspect=fixed;html=1;align=center;shadow=0;dashed=0;image=img/lib/allied_telesis/computer_and_terminals/Personal_Computer_with_Server.svg;rounded=1;verticalAlign=top;fontFamily=Helvetica;fontSize=12;fontColor=default;fillColor=default;flipH=1;" parent="1" vertex="1">
          <mxGeometry x="-420" y="-432.5" width="102" height="102" as="geometry" />
        </mxCell>
        <mxCell id="3uJrxtnBRZQrfx2Aj6_I-66" value="" style="image;points=[];aspect=fixed;html=1;align=center;shadow=0;dashed=0;image=img/lib/allied_telesis/computer_and_terminals/Personal_Computer_with_Server.svg;rounded=1;verticalAlign=top;fontFamily=Helvetica;fontSize=12;fontColor=default;fillColor=default;flipH=1;" parent="1" vertex="1">
          <mxGeometry x="-420" y="-252.5" width="102" height="102" as="geometry" />
        </mxCell>
        <mxCell id="3uJrxtnBRZQrfx2Aj6_I-91" value="R1" style="text;html=1;align=center;verticalAlign=middle;whiteSpace=wrap;rounded=0;fontFamily=Helvetica;fontSize=26;fontColor=default;" parent="1" vertex="1">
          <mxGeometry x="958.5" y="-627.25" width="60" height="30" as="geometry" />
        </mxCell>
        <mxCell id="3uJrxtnBRZQrfx2Aj6_I-92" value="R2" style="text;html=1;align=center;verticalAlign=middle;whiteSpace=wrap;rounded=0;fontFamily=Helvetica;fontSize=26;fontColor=default;" parent="1" vertex="1">
          <mxGeometry x="-108" y="-622" width="60" height="30" as="geometry" />
        </mxCell>
        <mxCell id="3uJrxtnBRZQrfx2Aj6_I-93" value="R3" style="text;html=1;align=center;verticalAlign=middle;whiteSpace=wrap;rounded=0;fontFamily=Helvetica;fontSize=26;fontColor=default;" parent="1" vertex="1">
          <mxGeometry x="-39" y="-396.5" width="60" height="30" as="geometry" />
        </mxCell>
        <mxCell id="3uJrxtnBRZQrfx2Aj6_I-94" value="R4" style="text;html=1;align=center;verticalAlign=middle;whiteSpace=wrap;rounded=0;fontFamily=Helvetica;fontSize=26;fontColor=default;" parent="1" vertex="1">
          <mxGeometry x="-30" y="-216.5" width="60" height="30" as="geometry" />
        </mxCell>
        <mxCell id="3uJrxtnBRZQrfx2Aj6_I-113" value="&lt;font style=&quot;font-size: 15px;&quot;&gt;&lt;b&gt;&lt;i&gt;Open Vswitch 1&lt;/i&gt;&lt;/b&gt;&lt;/font&gt;" style="text;html=1;align=center;verticalAlign=middle;whiteSpace=wrap;rounded=0;fontFamily=Helvetica;fontSize=26;fontColor=default;" parent="1" vertex="1">
          <mxGeometry x="21" y="-547" width="154" height="30" as="geometry" />
        </mxCell>
        <mxCell id="3uJrxtnBRZQrfx2Aj6_I-114" value="&lt;font style=&quot;font-size: 15px;&quot;&gt;&lt;b&gt;&lt;i&gt;Open Vswitch 2&lt;/i&gt;&lt;/b&gt;&lt;/font&gt;" style="text;html=1;align=center;verticalAlign=middle;whiteSpace=wrap;rounded=0;fontFamily=Helvetica;fontSize=26;fontColor=default;" parent="1" vertex="1">
          <mxGeometry x="463" y="-656.25" width="154" height="30" as="geometry" />
        </mxCell>
        <mxCell id="3uJrxtnBRZQrfx2Aj6_I-116" value="&lt;font style=&quot;font-size: 15px;&quot;&gt;&lt;b&gt;&lt;i&gt;Controlador SDN&lt;/i&gt;&lt;/b&gt;&lt;/font&gt;" style="text;html=1;align=center;verticalAlign=middle;whiteSpace=wrap;rounded=0;fontFamily=Helvetica;fontSize=26;fontColor=default;" parent="1" vertex="1">
          <mxGeometry x="494" y="-896.75" width="130" height="25" as="geometry" />
        </mxCell>
        <mxCell id="3uJrxtnBRZQrfx2Aj6_I-117" value="&lt;font size=&quot;1&quot; style=&quot;&quot;&gt;&lt;b style=&quot;&quot;&gt;&lt;i style=&quot;font-size: 18px;&quot;&gt;RED HÃBRIDA SDN&lt;br&gt;192.168.11.0/27&lt;/i&gt;&lt;/b&gt;&lt;/font&gt;" style="text;html=1;align=center;verticalAlign=middle;whiteSpace=wrap;rounded=0;fontFamily=Helvetica;fontSize=26;fontColor=default;" parent="1" vertex="1">
          <mxGeometry x="550" y="-768" width="205.5" height="60" as="geometry" />
        </mxCell>
        <mxCell id="3uJrxtnBRZQrfx2Aj6_I-118" value="Internet" style="text;html=1;align=center;verticalAlign=middle;whiteSpace=wrap;rounded=0;fontFamily=Helvetica;fontSize=26;fontColor=default;" parent="1" vertex="1">
          <mxGeometry x="1171.25" y="-541.5" width="60" height="30" as="geometry" />
        </mxCell>
        <mxCell id="M51-cbpcoO0k1B-L0Ytx-17" value="&lt;font style=&quot;font-size: 12px;&quot;&gt;&lt;b style=&quot;font-size: 12px;&quot;&gt;&lt;i style=&quot;font-size: 12px;&quot;&gt;enp0s3&amp;nbsp;&lt;br style=&quot;font-size: 12px;&quot;&gt;&lt;/i&gt;&lt;/b&gt;&lt;/font&gt;" style="text;html=1;align=center;verticalAlign=middle;whiteSpace=wrap;rounded=0;fontFamily=Helvetica;fontSize=12;fontColor=default;" parent="1" vertex="1">
          <mxGeometry x="480.97" y="-820" width="67" height="20" as="geometry" />
        </mxCell>
        <mxCell id="M51-cbpcoO0k1B-L0Ytx-23" value="&lt;font size=&quot;1&quot; style=&quot;&quot;&gt;&lt;b style=&quot;&quot;&gt;&lt;i style=&quot;font-size: 18px;&quot;&gt;DMZ&lt;br&gt;192.168.11.32/28&lt;/i&gt;&lt;/b&gt;&lt;/font&gt;" style="text;html=1;align=center;verticalAlign=middle;whiteSpace=wrap;rounded=0;fontFamily=Helvetica;fontSize=26;fontColor=default;" parent="1" vertex="1">
          <mxGeometry x="910" y="-896.75" width="205.5" height="60" as="geometry" />
        </mxCell>
        <mxCell id="M51-cbpcoO0k1B-L0Ytx-24" value="&lt;font size=&quot;1&quot; style=&quot;&quot;&gt;&lt;b style=&quot;&quot;&gt;&lt;i style=&quot;font-size: 18px;&quot;&gt;LAN A&lt;br&gt;192.168.11.48/28&lt;/i&gt;&lt;/b&gt;&lt;/font&gt;" style="text;html=1;align=center;verticalAlign=middle;whiteSpace=wrap;rounded=0;fontFamily=Helvetica;fontSize=26;fontColor=default;" parent="1" vertex="1">
          <mxGeometry x="-370" y="-658" width="205.5" height="60" as="geometry" />
        </mxCell>
        <mxCell id="M51-cbpcoO0k1B-L0Ytx-25" value="&lt;font size=&quot;1&quot; style=&quot;&quot;&gt;&lt;b style=&quot;&quot;&gt;&lt;i style=&quot;font-size: 18px;&quot;&gt;LAN B&lt;br&gt;192.168.11.64/28&lt;/i&gt;&lt;/b&gt;&lt;/font&gt;" style="text;html=1;align=center;verticalAlign=middle;whiteSpace=wrap;rounded=0;fontFamily=Helvetica;fontSize=26;fontColor=default;" parent="1" vertex="1">
          <mxGeometry x="-370" y="-482.5" width="205.5" height="60" as="geometry" />
        </mxCell>
        <mxCell id="M51-cbpcoO0k1B-L0Ytx-26" value="&lt;font size=&quot;1&quot; style=&quot;&quot;&gt;&lt;b style=&quot;&quot;&gt;&lt;i style=&quot;font-size: 18px;&quot;&gt;LAN C&lt;br&gt;192.168.11.80/28&lt;/i&gt;&lt;/b&gt;&lt;/font&gt;" style="text;html=1;align=center;verticalAlign=middle;whiteSpace=wrap;rounded=0;fontFamily=Helvetica;fontSize=26;fontColor=default;" parent="1" vertex="1">
          <mxGeometry x="-370" y="-295" width="205.5" height="60" as="geometry" />
        </mxCell>
        <mxCell id="3x31MsnCpi4qH06DEA2G-161" value="" style="endArrow=classic;html=1;rounded=0;dashed=1;dashPattern=8 8;fillColor=#d5e8d4;strokeColor=#66CC00;strokeWidth=3;startArrow=classic;startFill=1;" parent="1" edge="1">
          <mxGeometry width="50" height="50" relative="1" as="geometry">
            <mxPoint x="265" y="-575" as="sourcePoint" />
            <mxPoint x="408" y="-574.88" as="targetPoint" />
          </mxGeometry>
        </mxCell>
        <mxCell id="3x31MsnCpi4qH06DEA2G-162" value="" style="endArrow=classic;html=1;rounded=0;dashed=1;dashPattern=8 8;fillColor=#d5e8d4;strokeColor=#66CC00;strokeWidth=3;startArrow=classic;startFill=1;" parent="1" edge="1">
          <mxGeometry width="50" height="50" relative="1" as="geometry">
            <mxPoint x="783.5" y="-578" as="sourcePoint" />
            <mxPoint x="960" y="-580" as="targetPoint" />
          </mxGeometry>
        </mxCell>
        <mxCell id="3x31MsnCpi4qH06DEA2G-165" value="" style="endArrow=classic;html=1;rounded=0;dashed=1;dashPattern=8 8;fillColor=#d5e8d4;strokeColor=#66CC00;strokeWidth=3;" parent="1" edge="1">
          <mxGeometry width="50" height="50" relative="1" as="geometry">
            <mxPoint x="525" y="-576.75" as="sourcePoint" />
            <mxPoint x="668" y="-576.63" as="targetPoint" />
          </mxGeometry>
        </mxCell>
        <mxCell id="aQdcpVnJObZtxGF_5yML-8" value="&lt;font style=&quot;font-size: 18px;&quot;&gt;&lt;i&gt;&lt;b style=&quot;line-height: 140%;&quot;&gt;Colas para asegurar trÃ¡fico:&lt;/b&gt;&lt;/i&gt;&lt;/font&gt;&lt;div&gt;&lt;div style=&quot;&quot;&gt;&lt;font style=&quot;font-size: 18px;&quot;&gt;&amp;nbsp; VoIP |&amp;nbsp;&lt;/font&gt;&lt;span style=&quot;font-size: 18px; background-color: initial;&quot;&gt;VoD&lt;/span&gt;&lt;/div&gt;&lt;div style=&quot;&quot;&gt;&lt;span style=&quot;font-size: 18px;&quot;&gt;&amp;nbsp; &amp;nbsp;FTP |&amp;nbsp;&lt;/span&gt;&lt;span style=&quot;font-size: 18px; background-color: initial;&quot;&gt;Web&lt;/span&gt;&lt;/div&gt;&lt;/div&gt;" style="rounded=1;whiteSpace=wrap;html=1;" vertex="1" parent="1">
          <mxGeometry x="340" y="-470" width="253" height="90" as="geometry" />
        </mxCell>
        <mxCell id="aQdcpVnJObZtxGF_5yML-14" value="&lt;font style=&quot;font-size: 15px;&quot;&gt;&lt;b&gt;&lt;i&gt;Open Vswitch 3&lt;/i&gt;&lt;/b&gt;&lt;/font&gt;" style="text;html=1;align=center;verticalAlign=middle;whiteSpace=wrap;rounded=0;fontFamily=Helvetica;fontSize=26;fontColor=default;" vertex="1" parent="1">
          <mxGeometry x="730" y="-550" width="154" height="30" as="geometry" />
        </mxCell>
        <mxCell id="aQdcpVnJObZtxGF_5yML-19" value="" style="rounded=1;whiteSpace=wrap;html=1;fillColor=#CCF3FF;strokeColor=#CCFFE6;" vertex="1" parent="1">
          <mxGeometry x="211.5" y="-1120" width="510" height="150" as="geometry" />
        </mxCell>
        <mxCell id="aQdcpVnJObZtxGF_5yML-20" value="&lt;font style=&quot;font-size: 18px;&quot;&gt;ConfiguraciÃ³n de colas&lt;/font&gt;" style="rounded=1;whiteSpace=wrap;html=1;fillColor=#CCFFE6;strokeColor=#CCFFE6;" vertex="1" parent="1">
          <mxGeometry x="314" y="-1060" width="120" height="60" as="geometry" />
        </mxCell>
        <mxCell id="aQdcpVnJObZtxGF_5yML-21" value="&lt;font style=&quot;font-size: 18px;&quot;&gt;ClasificaciÃ³n de trÃ¡fico&lt;/font&gt;" style="rounded=1;whiteSpace=wrap;html=1;fillColor=#CCFFE6;strokeColor=#CCFFE6;" vertex="1" parent="1">
          <mxGeometry x="499" y="-1060" width="120" height="60" as="geometry" />
        </mxCell>
        <mxCell id="aQdcpVnJObZtxGF_5yML-22" value="&lt;h1 style=&quot;margin-top: 0px;&quot;&gt;&lt;font size=&quot;1&quot; style=&quot;&quot;&gt;&lt;i style=&quot;font-size: 19px;&quot;&gt;Proceso de calidad de servicio en la red SDN&amp;nbsp;&lt;/i&gt;&lt;/font&gt;&lt;/h1&gt;" style="text;html=1;whiteSpace=wrap;overflow=hidden;rounded=0;" vertex="1" parent="1">
          <mxGeometry x="251.25" y="-1110" width="430.5" height="40" as="geometry" />
        </mxCell>
        <mxCell id="aQdcpVnJObZtxGF_5yML-27" value="" style="endArrow=classic;startArrow=classic;html=1;rounded=0;fillColor=#d5e8d4;strokeColor=#82b366;dashed=1;dashPattern=8 8;strokeWidth=2;" edge="1" parent="1">
          <mxGeometry width="50" height="50" relative="1" as="geometry">
            <mxPoint x="469.90999999999997" y="-896.75" as="sourcePoint" />
            <mxPoint x="469.65999999999997" y="-986.75" as="targetPoint" />
          </mxGeometry>
        </mxCell>
        <mxCell id="aQdcpVnJObZtxGF_5yML-28" value="" style="endArrow=classic;html=1;rounded=0;dashed=1;strokeWidth=2;entryX=0;entryY=0.25;entryDx=0;entryDy=0;startArrow=classic;startFill=1;" edge="1" parent="1">
          <mxGeometry width="50" height="50" relative="1" as="geometry">
            <mxPoint x="453.09999999999997" y="-976.75" as="sourcePoint" />
            <mxPoint x="453.58" y="-898.75" as="targetPoint" />
          </mxGeometry>
        </mxCell>
        <mxCell id="aQdcpVnJObZtxGF_5yML-33" style="edgeStyle=none;rounded=1;orthogonalLoop=1;jettySize=auto;html=1;entryX=0.5;entryY=0.15;entryDx=0;entryDy=0;entryPerimeter=0;fontFamily=Helvetica;fontSize=12;fontColor=default;endArrow=baseDash;endFill=0;dashed=1;dashPattern=8 8;fillColor=#f8cecc;strokeColor=#b85450;strokeWidth=3;" edge="1" parent="1">
          <mxGeometry relative="1" as="geometry">
            <mxPoint x="409" y="-694" as="sourcePoint" />
            <mxPoint x="213" y="-607" as="targetPoint" />
          </mxGeometry>
        </mxCell>
        <mxCell id="aQdcpVnJObZtxGF_5yML-34" style="edgeStyle=none;rounded=1;orthogonalLoop=1;jettySize=auto;html=1;entryX=0.5;entryY=0.15;entryDx=0;entryDy=0;entryPerimeter=0;fontFamily=Helvetica;fontSize=12;fontColor=default;endArrow=baseDash;endFill=0;dashed=1;dashPattern=8 8;strokeWidth=3;fillColor=#f8cecc;strokeColor=#b85450;" edge="1" parent="1">
          <mxGeometry relative="1" as="geometry">
            <mxPoint x="477" y="-700" as="sourcePoint" />
            <mxPoint x="477" y="-613" as="targetPoint" />
          </mxGeometry>
        </mxCell>
        <mxCell id="aQdcpVnJObZtxGF_5yML-35" style="edgeStyle=none;rounded=1;orthogonalLoop=1;jettySize=auto;html=1;fontFamily=Helvetica;fontSize=12;fontColor=default;endArrow=baseDash;endFill=0;dashed=1;dashPattern=8 8;strokeWidth=3;fillColor=#f8cecc;strokeColor=#b85450;" edge="1" parent="1">
          <mxGeometry relative="1" as="geometry">
            <mxPoint x="499" y="-700" as="sourcePoint" />
            <mxPoint x="700" y="-610" as="targetPoint" />
          </mxGeometry>
        </mxCell>
        <mxCell id="aQdcpVnJObZtxGF_5yML-36" style="edgeStyle=none;rounded=1;orthogonalLoop=1;jettySize=auto;html=1;entryX=0.5;entryY=0;entryDx=0;entryDy=0;entryPerimeter=0;fontFamily=Helvetica;fontSize=12;fontColor=default;endArrow=baseDash;endFill=0;dashed=1;strokeWidth=3;fillColor=#f8cecc;strokeColor=#b85450;" edge="1" parent="1">
          <mxGeometry relative="1" as="geometry">
            <mxPoint x="470" y="-814.75" as="sourcePoint" />
            <mxPoint x="470" y="-754.75" as="targetPoint" />
          </mxGeometry>
        </mxCell>
        <mxCell id="aQdcpVnJObZtxGF_5yML-37" value="" style="endArrow=classic;html=1;rounded=0;strokeWidth=2;" edge="1" parent="1">
          <mxGeometry width="50" height="50" relative="1" as="geometry">
            <mxPoint x="450" y="-802" as="sourcePoint" />
            <mxPoint x="450" y="-756" as="targetPoint" />
          </mxGeometry>
        </mxCell>
        <mxCell id="aQdcpVnJObZtxGF_5yML-38" style="edgeStyle=none;rounded=1;orthogonalLoop=1;jettySize=auto;html=1;fontFamily=Helvetica;fontSize=12;fontColor=default;endArrow=classic;endFill=1;fillColor=#f8cecc;strokeColor=#000000;strokeWidth=2;" edge="1" parent="1">
          <mxGeometry relative="1" as="geometry">
            <mxPoint x="400" y="-710" as="sourcePoint" />
            <mxPoint x="245" y="-642" as="targetPoint" />
          </mxGeometry>
        </mxCell>
        <mxCell id="aQdcpVnJObZtxGF_5yML-39" style="edgeStyle=none;rounded=1;orthogonalLoop=1;jettySize=auto;html=1;fontFamily=Helvetica;fontSize=12;fontColor=default;endArrow=classic;endFill=1;strokeWidth=2;fillColor=#f8cecc;strokeColor=#050505;" edge="1" parent="1">
          <mxGeometry relative="1" as="geometry">
            <mxPoint x="530" y="-710" as="sourcePoint" />
            <mxPoint x="689.5" y="-637" as="targetPoint" />
          </mxGeometry>
        </mxCell>
        <mxCell id="aQdcpVnJObZtxGF_5yML-40" style="edgeStyle=none;rounded=1;orthogonalLoop=1;jettySize=auto;html=1;fontFamily=Helvetica;fontSize=12;fontColor=default;endArrow=classic;endFill=1;strokeWidth=2;fillColor=#f8cecc;strokeColor=#050505;" edge="1" parent="1">
          <mxGeometry relative="1" as="geometry">
            <mxPoint x="450" y="-690" as="sourcePoint" />
            <mxPoint x="450.5" y="-630" as="targetPoint" />
          </mxGeometry>
        </mxCell>
        <mxCell id="aQdcpVnJObZtxGF_5yML-41" value="&lt;font style=&quot;font-size: 15px;&quot;&gt;Establecimiento de polticas de QoS&lt;/font&gt;" style="rounded=1;whiteSpace=wrap;html=1;fillColor=#dae8fc;strokeColor=#6c8ebf;" vertex="1" parent="1">
          <mxGeometry x="180" y="-960" width="160.5" height="60" as="geometry" />
        </mxCell>
        <mxCell id="aQdcpVnJObZtxGF_5yML-42" value="" style="endArrow=classic;html=1;rounded=0;entryX=1;entryY=0.5;entryDx=0;entryDy=0;fillColor=#dae8fc;strokeColor=#6c8ebf;" edge="1" parent="1">
          <mxGeometry width="50" height="50" relative="1" as="geometry">
            <mxPoint x="452" y="-930" as="sourcePoint" />
            <mxPoint x="343.5000000000002" y="-930" as="targetPoint" />
          </mxGeometry>
        </mxCell>
        <mxCell id="aQdcpVnJObZtxGF_5yML-44" value="" style="endArrow=classic;html=1;rounded=0;entryX=1;entryY=0.5;entryDx=0;entryDy=0;fillColor=#dae8fc;strokeColor=#6c8ebf;" edge="1" parent="1">
          <mxGeometry width="50" height="50" relative="1" as="geometry">
            <mxPoint x="442" y="-784" as="sourcePoint" />
            <mxPoint x="333.5000000000002" y="-784" as="targetPoint" />
          </mxGeometry>
        </mxCell>
        <mxCell id="aQdcpVnJObZtxGF_5yML-45" value="&lt;font style=&quot;font-size: 15px;&quot;&gt;EnvÃ­o de polticas de QoS&lt;/font&gt;" style="rounded=1;whiteSpace=wrap;html=1;fillColor=#dae8fc;strokeColor=#6c8ebf;" vertex="1" parent="1">
          <mxGeometry x="182" y="-814" width="151.5" height="60" as="geometry" />
        </mxCell>
        <mxCell id="aQdcpVnJObZtxGF_5yML-47" value="&lt;font size=&quot;1&quot; style=&quot;&quot;&gt;&lt;b style=&quot;&quot;&gt;&lt;i style=&quot;font-size: 18px;&quot;&gt;RED HÃBRIDA SDN&lt;/i&gt;&lt;/b&gt;&lt;/font&gt;" style="text;html=1;align=center;verticalAlign=middle;whiteSpace=wrap;rounded=0;fontFamily=Helvetica;fontSize=26;fontColor=default;" vertex="1" parent="1">
          <mxGeometry x="-176" y="-918" width="180" height="30" as="geometry" />
        </mxCell>
        <mxCell id="aQdcpVnJObZtxGF_5yML-48" value="" style="rounded=1;whiteSpace=wrap;html=1;" vertex="1" parent="1">
          <mxGeometry x="-190" y="-873" width="235.5" height="223" as="geometry" />
        </mxCell>
        <mxCell id="aQdcpVnJObZtxGF_5yML-49" value="&lt;h1 style=&quot;margin-top: 0px;&quot;&gt;&lt;span style=&quot;font-size: 19px;&quot;&gt;&lt;i&gt;Leyendas&lt;/i&gt;&lt;/span&gt;&lt;/h1&gt;" style="text;html=1;whiteSpace=wrap;overflow=hidden;rounded=0;" vertex="1" parent="1">
          <mxGeometry x="-110" y="-873" width="96" height="35" as="geometry" />
        </mxCell>
        <mxCell id="aQdcpVnJObZtxGF_5yML-50" style="edgeStyle=none;rounded=1;orthogonalLoop=1;jettySize=auto;html=1;fontFamily=Helvetica;fontSize=12;fontColor=default;endArrow=none;endFill=0;dashed=1;strokeWidth=3;fillColor=#f8cecc;strokeColor=#b85450;" edge="1" parent="1">
          <mxGeometry relative="1" as="geometry">
            <mxPoint x="-175.75" y="-724.24" as="sourcePoint" />
            <mxPoint x="-95.75" y="-724.24" as="targetPoint" />
          </mxGeometry>
        </mxCell>
        <mxCell id="aQdcpVnJObZtxGF_5yML-51" value="" style="endArrow=classic;startArrow=classic;html=1;rounded=0;fillColor=#d5e8d4;strokeColor=#82b366;dashed=1;dashPattern=8 8;strokeWidth=2;" edge="1" parent="1">
          <mxGeometry width="50" height="50" relative="1" as="geometry">
            <mxPoint x="-180.7499999999999" y="-816" as="sourcePoint" />
            <mxPoint x="-94.5" y="-816" as="targetPoint" />
          </mxGeometry>
        </mxCell>
        <mxCell id="aQdcpVnJObZtxGF_5yML-52" style="edgeStyle=none;rounded=1;orthogonalLoop=1;jettySize=auto;html=1;exitX=0.94;exitY=0.73;exitDx=0;exitDy=0;exitPerimeter=0;fontFamily=Helvetica;fontSize=12;fontColor=default;endArrow=baseDash;endFill=0;" edge="1" parent="1">
          <mxGeometry relative="1" as="geometry">
            <mxPoint x="-180.75" y="-676.6700000000001" as="sourcePoint" />
            <mxPoint x="-94.5" y="-677.33" as="targetPoint" />
          </mxGeometry>
        </mxCell>
        <mxCell id="aQdcpVnJObZtxGF_5yML-53" value="&lt;font style=&quot;font-size: 16px;&quot;&gt;API RESTful&lt;/font&gt;" style="text;html=1;align=center;verticalAlign=middle;whiteSpace=wrap;rounded=0;" vertex="1" parent="1">
          <mxGeometry x="-84.75" y="-832" width="110.63" height="30" as="geometry" />
        </mxCell>
        <mxCell id="aQdcpVnJObZtxGF_5yML-54" value="&lt;span style=&quot;font-size: 16px;&quot;&gt;Interfaz Southbound&lt;/span&gt;" style="text;html=1;align=center;verticalAlign=middle;whiteSpace=wrap;rounded=0;" vertex="1" parent="1">
          <mxGeometry x="-84.75" y="-747" width="110.63" height="30" as="geometry" />
        </mxCell>
        <mxCell id="aQdcpVnJObZtxGF_5yML-55" value="&lt;font style=&quot;font-size: 16px;&quot;&gt;ConexiÃ³n cableada&lt;/font&gt;" style="text;html=1;align=center;verticalAlign=middle;whiteSpace=wrap;rounded=0;" vertex="1" parent="1">
          <mxGeometry x="-84.75" y="-692" width="110.63" height="30" as="geometry" />
        </mxCell>
        <mxCell id="aQdcpVnJObZtxGF_5yML-57" value="&lt;p style=&quot;line-height: 50%;&quot;&gt;&lt;i style=&quot;&quot;&gt;&lt;font style=&quot;font-size: 17px;&quot;&gt;MPLS:LER&lt;/font&gt;&lt;/i&gt;&lt;/p&gt;" style="text;html=1;align=center;verticalAlign=middle;whiteSpace=wrap;rounded=0;fontFamily=Helvetica;fontSize=26;fontColor=default;" vertex="1" parent="1">
          <mxGeometry x="230" y="-549.5" width="90.5" height="35" as="geometry" />
        </mxCell>
        <mxCell id="aQdcpVnJObZtxGF_5yML-59" value="&lt;p style=&quot;line-height: 50%;&quot;&gt;&lt;i style=&quot;&quot;&gt;&lt;font style=&quot;font-size: 17px;&quot;&gt;MPLS:LER&lt;/font&gt;&lt;/i&gt;&lt;/p&gt;" style="text;html=1;align=center;verticalAlign=middle;whiteSpace=wrap;rounded=0;fontFamily=Helvetica;fontSize=26;fontColor=default;" vertex="1" parent="1">
          <mxGeometry x="609.9999999999999" y="-550" width="128.94" height="35" as="geometry" />
        </mxCell>
        <mxCell id="aQdcpVnJObZtxGF_5yML-62" value="&lt;p style=&quot;line-height: 50%;&quot;&gt;&lt;i style=&quot;&quot;&gt;&lt;font style=&quot;font-size: 17px;&quot;&gt;MPLS:LSR&lt;/font&gt;&lt;/i&gt;&lt;/p&gt;" style="text;html=1;align=center;verticalAlign=middle;whiteSpace=wrap;rounded=0;fontFamily=Helvetica;fontSize=26;fontColor=default;" vertex="1" parent="1">
          <mxGeometry x="449.99999999999994" y="-552.5" width="128.94" height="35" as="geometry" />
        </mxCell>
        <mxCell id="aQdcpVnJObZtxGF_5yML-64" value="&lt;span style=&quot;font-size: 16px;&quot;&gt;Interfaz Nourthbound&lt;/span&gt;" style="text;html=1;align=center;verticalAlign=middle;whiteSpace=wrap;rounded=0;" vertex="1" parent="1">
          <mxGeometry x="-83.5" y="-798" width="110.63" height="30" as="geometry" />
        </mxCell>
        <mxCell id="aQdcpVnJObZtxGF_5yML-65" value="" style="endArrow=classic;startArrow=classic;html=1;rounded=0;fillColor=#d5e8d4;strokeColor=#000000;dashed=1;dashPattern=8 8;strokeWidth=2;" edge="1" parent="1">
          <mxGeometry width="50" height="50" relative="1" as="geometry">
            <mxPoint x="-179.7499999999999" y="-778" as="sourcePoint" />
            <mxPoint x="-93.5" y="-778" as="targetPoint" />
          </mxGeometry>
        </mxCell>
      </root>
    </mxGraphModel>
  </diagram>
</mxfile>
